<?xml version="1.0" encoding="UTF-8"?>
<!DOCTYPE svg PUBLIC "-//W3C//DTD SVG 1.1//EN" "http://www.w3.org/Graphics/SVG/1.1/DTD/svg11.dtd">
<svg version="1.1" id="Layer_1" xmlns="http://www.w3.org/2000/svg" xmlns:xlink="http://www.w3.org/1999/xlink" x="0px" y="0px" width="24px" height="24px" viewBox="0 0 24 24" enable-background="new 0 0 24 24" xml:space="preserve">
  <g id="main">
    <clipPath id="clip_mask">
      <path d="M14.5,23.0477v-4.5953c0,-1.0043,0.6207,-1.8694,1.5027,-2.2482C16.0982,14.146,17.8536,12.5,19.9944,12.5s3.899,1.6459,3.9945,3.7041c0.0037,0.0016,0.0073,0.0036,0.011,0.0052V0H0v24h14.696C14.5698,23.707,14.5,23.3852,14.5,23.0477z"/>
    </clipPath>
    <g id="icon" clip-path="url(#clip_mask)">
      <g id="transformed_icon" transform="translate(-1 -1)">
        <path d="M19,9h-4V3H9v6H5l7,7,7,-7zM5,18v2h14v-2H5z" fill="#000000"/>
      </g>
    </g>
    <g id="overlay">
      <path d="M22.9806,17.5h-0.4986v-1.119c0,-1.3143,-1.1169,-2.381,-2.4931,-2.381c-1.3762,0,-2.4931,1.0667,-2.4931,2.381V17.5h-0.4986c-0.5485,0,-0.9972,0.4286,-0.9972,0.9524v4.5952c0,0.5238,0.4488,0.9524,0.9972,0.9524h5.9833c0.5485,0,0.9972,-0.4286,0.9972,-0.9524v-4.5952C23.9778,17.9286,23.529,17.5,22.9806,17.5zM19.9889,21c-0.5485,0,-0.9972,-0.4286,-0.9972,-0.9524s0.4487,-0.9524,0.9972,-0.9524s0.9972,0.4286,0.9972,0.9524S20.5374,21,19.9889,21zM21.5346,17.5h-3.0914v-1.119c0,-0.8143,0.6931,-1.4762,1.5457,-1.4762c0.8526,0,1.5457,0.6619,1.5457,1.4762V17.5z" fill="#000000"/>
    </g>
  </g>
</svg>
