<svg id="Layer_1" xmlns="http://www.w3.org/2000/svg" width="24px" height="24px" viewBox="0 0 24 24">
<g id="transformed_icon" transform="translate(-1 -1)">
<path d="M19.35,10.04C18.67,6.59,15.64,4,12,4,9.11,4,6.6,5.64,5.35,8.04,2.34,8.36,0,10.91,0,14c0,3.31,2.69,6,6,6h13c2.76,0,5,-2.24,5,-5,0,-2.64,-2.05,-4.78,-4.65,-4.96zM17,13l-5,5,-5,-5h3V9h4v4h3z" fill="#3D73AD"/>
</g>
<path d="M22.9806,17.5h-0.4986v-1.119c0,-1.3143,-1.1169,-2.381,-2.4931,-2.381c-1.3762,0,-2.4931,1.0667,-2.4931,2.381V17.5h-0.4986c-0.5485,0,-0.9972,0.4286,-0.9972,0.9524v4.5952c0,0.5238,0.4488,0.9524,0.9972,0.9524h5.9833c0.5485,0,0.9972,-0.4286,0.9972,-0.9524v-4.5952C23.9778,17.9286,23.529,17.5,22.9806,17.5zM19.9889,21c-0.5485,0,-0.9972,-0.4286,-0.9972,-0.9524s0.4487,-0.9524,0.9972,-0.9524s0.9972,0.4286,0.9972,0.9524S20.5374,21,19.9889,21zM21.5346,17.5h-3.0914v-1.119c0,-0.8143,0.6931,-1.4762,1.5457,-1.4762c0.8526,0,1.5457,0.6619,1.5457,1.4762V17.5z" fill="#FFCE55"/>
</svg>
